<svg width="25" height="25" viewBox="0 0 25 25" fill="none" xmlns="http://www.w3.org/2000/svg">
<path d="M12.5 25C19.4036 25 25 19.4036 25 12.5C25 5.59644 19.4036 0 12.5 0C5.59644 0 0 5.59644 0 12.5C0 19.4036 5.59644 25 12.5 25Z" fill="white"/>
<path d="M17.3928 10.4726C17.3853 10.0649 17.3084 9.66139 17.1656 9.27943C17.0387 8.95248 16.8451 8.6556 16.597 8.40778C16.3489 8.15996 16.0517 7.96665 15.7246 7.84023C15.3426 7.69751 14.9392 7.62066 14.5315 7.61295C14.0042 7.58625 13.8371 7.58057 12.5013 7.58057C11.1656 7.58057 10.9985 7.58625 10.4741 7.60954C10.0663 7.61709 9.66285 7.69394 9.28089 7.83682C8.95192 7.96007 8.654 8.15403 8.40817 8.405C8.15801 8.65061 7.96415 8.9476 7.83999 9.27545C7.69728 9.65746 7.62043 10.0609 7.61271 10.4686C7.58771 10.9976 7.58203 11.1647 7.58203 12.5005C7.58203 13.8362 7.58771 14.001 7.61101 14.5277C7.61853 14.9355 7.69538 15.339 7.83828 15.7209C7.9649 16.0477 8.1583 16.3445 8.40611 16.5923C8.65392 16.8401 8.9507 17.0335 9.27749 17.1601C9.65949 17.3028 10.0629 17.3797 10.4707 17.3874C10.9951 17.4107 11.1627 17.4164 12.4979 17.4164C13.8332 17.4164 14.0008 17.4107 14.5252 17.3874C14.933 17.3799 15.3364 17.303 15.7184 17.1601C16.0453 17.0337 16.3422 16.8403 16.59 16.5925C16.8378 16.3447 17.0312 16.0478 17.1576 15.7209C17.3003 15.3389 17.3771 14.9354 17.3849 14.5277C17.4082 14.0033 17.4138 13.8357 17.4138 12.5005C17.4138 11.1652 17.4138 10.9976 17.3888 10.4732L17.3928 10.4726ZM16.5065 14.4897C16.5029 14.8016 16.4452 15.1105 16.336 15.4027C16.254 15.6149 16.1286 15.8077 15.9677 15.9685C15.8068 16.1294 15.6141 16.2548 15.4019 16.3368C15.1097 16.4458 14.8008 16.5035 14.4888 16.5073C13.9701 16.5306 13.8144 16.5362 12.5002 16.5362C11.186 16.5362 11.0298 16.5306 10.5116 16.5073C10.1996 16.5037 9.8907 16.4461 9.59851 16.3368C9.38507 16.2584 9.19204 16.133 9.03374 15.9698C8.87094 15.8111 8.74555 15.6182 8.66669 15.405C8.55768 15.1127 8.50001 14.8038 8.49624 14.4919C8.47294 13.9732 8.46726 13.8175 8.46726 12.5033C8.46726 11.1891 8.47294 11.0328 8.49624 10.5147C8.49978 10.2027 8.55745 9.89379 8.66669 9.60159C8.74516 9.38765 8.87148 9.19448 9.03601 9.03682C9.1946 8.87396 9.38755 8.74856 9.60078 8.66977C9.89305 8.56079 10.2019 8.50312 10.5138 8.49932C11.0326 8.47602 11.1883 8.47034 12.5025 8.47034C13.8167 8.47034 13.9729 8.47602 14.4911 8.49932C14.803 8.50289 15.112 8.56057 15.4042 8.66977C15.6176 8.74811 15.8107 8.87357 15.969 9.03682C16.1318 9.19545 16.2572 9.38839 16.336 9.60159C16.445 9.89385 16.5027 10.2028 16.5065 10.5147C16.5298 11.0334 16.5354 11.1891 16.5354 12.5033C16.5354 13.8175 16.5298 13.9698 16.5065 14.4885V14.4897Z" fill="black"/>
<path d="M12.5038 9.97314C12.004 9.97314 11.5154 10.1214 11.0998 10.3991C10.6842 10.6768 10.3602 11.0715 10.1689 11.5333C9.97766 11.9951 9.92761 12.5032 10.0251 12.9935C10.1226 13.4837 10.3633 13.934 10.7168 14.2875C11.0702 14.6409 11.5205 14.8816 12.0108 14.9791C12.501 15.0766 13.0092 15.0266 13.471 14.8353C13.9328 14.644 14.3275 14.3201 14.6052 13.9045C14.8829 13.4889 15.0311 13.0003 15.0311 12.5004C15.031 11.8302 14.7646 11.1875 14.2907 10.7135C13.8168 10.2396 13.1741 9.9733 12.5038 9.97314ZM12.5038 14.1396C12.1796 14.1396 11.8627 14.0435 11.5931 13.8634C11.3236 13.6832 11.1135 13.4272 10.9894 13.1277C10.8653 12.8282 10.8329 12.4986 10.8961 12.1806C10.9594 11.8626 11.1155 11.5706 11.3447 11.3413C11.574 11.1121 11.8661 10.956 12.184 10.8927C12.502 10.8295 12.8316 10.8619 13.1311 10.986C13.4307 11.1101 13.6867 11.3202 13.8668 11.5897C14.0469 11.8593 14.143 12.1762 14.143 12.5004C14.1429 12.9351 13.9701 13.352 13.6628 13.6593C13.3554 13.9667 12.9385 14.1395 12.5038 14.1396V14.1396Z" fill="black"/>
<path d="M15.7196 9.87322C15.7196 9.98987 15.685 10.1039 15.6202 10.2009C15.5554 10.2979 15.4633 10.3735 15.3555 10.4181C15.2477 10.4627 15.1292 10.4744 15.0148 10.4517C14.9004 10.4289 14.7953 10.3727 14.7128 10.2903C14.6303 10.2078 14.5741 10.1027 14.5514 9.98828C14.5286 9.87388 14.5403 9.75529 14.5849 9.64753C14.6296 9.53976 14.7052 9.44765 14.8022 9.38284C14.8991 9.31804 15.0132 9.28345 15.1298 9.28345C15.2862 9.28345 15.4363 9.34558 15.5469 9.45619C15.6575 9.56679 15.7196 9.7168 15.7196 9.87322Z" fill="black"/>
</svg>
