<svg width="7" height="7" viewBox="0 0 7 7" fill="none" xmlns="http://www.w3.org/2000/svg">
<path d="M3.50383 0.973145C3.00399 0.973145 2.51537 1.12137 2.09976 1.39907C1.68415 1.67677 1.36022 2.07147 1.16894 2.53327C0.977656 2.99507 0.92761 3.50322 1.02513 3.99347C1.12264 4.48371 1.36334 4.93403 1.71679 5.28747C2.07023 5.64092 2.52055 5.88161 3.01079 5.97913C3.50103 6.07664 4.00918 6.0266 4.47098 5.83531C4.93278 5.64403 5.32748 5.3201 5.60519 4.90449C5.88289 4.48889 6.03111 4.00026 6.03111 3.50042C6.03096 2.83019 5.76465 2.18746 5.29072 1.71353C4.8168 1.23961 4.17406 0.973295 3.50383 0.973145ZM3.50383 5.13962C3.17963 5.13962 2.86271 5.04348 2.59314 4.86336C2.32358 4.68325 2.11347 4.42724 1.98941 4.12772C1.86534 3.82819 1.83288 3.4986 1.89613 3.18062C1.95938 2.86265 2.1155 2.57057 2.34475 2.34132C2.57399 2.11208 2.86607 1.95596 3.18404 1.89271C3.50201 1.82946 3.83161 1.86192 4.13113 1.98599C4.43066 2.11006 4.68666 2.32016 4.86678 2.58972C5.0469 2.85929 5.14304 3.17621 5.14304 3.50042C5.14289 3.93511 4.97014 4.35197 4.66276 4.65935C4.35539 4.96672 3.93853 5.13947 3.50383 5.13962Z" fill="black"/>
</svg>
