<svg width="13" height="11" viewBox="0 0 13 11" fill="none" xmlns="http://www.w3.org/2000/svg">
<path d="M12.3099 1.97969C11.8728 2.17031 11.4104 2.297 10.9372 2.35582C11.436 2.0601 11.809 1.59169 11.9855 1.03935C11.5184 1.31633 11.0075 1.51138 10.4747 1.61605C10.148 1.26734 9.72401 1.02491 9.25778 0.920271C8.79156 0.815627 8.30463 0.853599 7.86026 1.02925C7.41589 1.2049 7.03461 1.51012 6.76593 1.90526C6.49726 2.3004 6.35362 2.7672 6.35366 3.24503C6.35232 3.42764 6.37138 3.60983 6.41048 3.78821C5.46276 3.74168 4.53553 3.49565 3.6894 3.06623C2.84327 2.6368 2.0973 2.03364 1.50025 1.29616C1.19429 1.82003 1.09965 2.44086 1.23564 3.03209C1.37162 3.62332 1.72798 4.14043 2.23207 4.47798C1.85504 4.46792 1.48596 4.36737 1.15593 4.1848V4.21435C1.15655 4.76445 1.34666 5.29754 1.69427 5.7239C2.04187 6.15026 2.52575 6.44385 3.06445 6.55525C2.86052 6.60899 2.65034 6.63536 2.43945 6.63366C2.28804 6.63629 2.13679 6.62257 1.98832 6.59275C2.14283 7.06448 2.43951 7.47685 2.83767 7.77328C3.23583 8.06971 3.71596 8.23569 4.21218 8.24844C3.36904 8.909 2.32872 9.26771 1.25763 9.26719C1.06773 9.2683 0.877953 9.2573 0.689453 9.23423C1.77869 9.93638 3.04807 10.3078 4.344 10.3035C5.23606 10.3098 6.12047 10.1388 6.94586 9.80033C7.77125 9.4619 8.52116 8.96283 9.15203 8.33211C9.78291 7.7014 10.2822 6.95161 10.6208 6.1263C10.9595 5.301 11.1307 4.41663 11.1247 3.52457C11.1247 3.41946 11.1213 3.31775 11.1162 3.21662C11.586 2.8803 11.9905 2.46114 12.3099 1.97969Z" fill="black"/>
</svg>
