<svg width="10" height="13" viewBox="0 0 10 13" fill="none" xmlns="http://www.w3.org/2000/svg">
<path d="M8.72722 1.98262C7.94501 1.23172 6.86252 0.818146 5.67916 0.818146C3.87153 0.818146 2.75976 1.55912 2.14541 2.18069C1.38827 2.9467 0.954102 3.9638 0.954102 4.97127C0.954102 6.23621 1.4832 7.20709 2.36924 7.56829C2.42872 7.59266 2.48857 7.60494 2.54725 7.60494C2.73417 7.60494 2.88228 7.48264 2.93359 7.28644C2.9635 7.17389 3.03281 6.89622 3.06293 6.77567C3.12744 6.53762 3.07532 6.42313 2.93465 6.25735C2.67839 5.95414 2.55905 5.59558 2.55905 5.12894C2.55905 3.74287 3.59115 2.26975 5.50404 2.26975C7.02184 2.26975 7.96469 3.13241 7.96469 4.52104C7.96469 5.39734 7.77594 6.20886 7.4331 6.80624C7.19487 7.22131 6.77595 7.7161 6.13283 7.7161C5.85472 7.7161 5.60491 7.60186 5.44727 7.4027C5.29836 7.21442 5.24928 6.97121 5.30917 6.71773C5.37683 6.43134 5.46908 6.13259 5.55836 5.84378C5.7212 5.3163 5.87514 4.8181 5.87514 4.42062C5.87514 3.74074 5.45717 3.28392 4.83516 3.28392C4.04467 3.28392 3.42538 4.0868 3.42538 5.11175C3.42538 5.61442 3.55897 5.99039 3.61944 6.13476C3.51986 6.55668 2.92802 9.06512 2.81576 9.53814C2.75085 9.81427 2.35982 11.9952 3.00704 12.1691C3.73423 12.3645 4.38424 10.2404 4.4504 10.0004C4.50402 9.80518 4.69164 9.06706 4.80661 8.61332C5.15765 8.95147 5.72289 9.18006 6.27287 9.18006C7.3097 9.18006 8.24214 8.71349 8.89845 7.86637C9.53497 7.04473 9.88554 5.89953 9.88554 4.64188C9.88554 3.65868 9.46332 2.6894 8.72722 1.98262Z" fill="black"/>
</svg>
